<svg xmlns="http://www.w3.org/2000/svg" viewBox="0 0 188.02 362.7"><defs><style>.cls-1{fill:#f6f6f6;}.cls-2{fill:#3c3c3b;}.cls-3{fill:#fff;}.cls-4{fill:#1d1d1b;}.cls-5{fill:none;stroke:#1d1d1b;stroke-miterlimit:10;stroke-width:3px;}</style></defs><g id="Warstwa_3" data-name="Warstwa 3"><rect class="cls-1" x="10.32" y="41.5" width="158.67" height="221.69" rx="6.77"/><path class="cls-2" d="M162.22,42.5A5.78,5.78,0,0,1,168,48.27V256.43a5.78,5.78,0,0,1-5.77,5.77H17.08a5.78,5.78,0,0,1-5.77-5.77V48.27a5.78,5.78,0,0,1,5.77-5.77H162.22m0-2H17.08a7.77,7.77,0,0,0-7.77,7.77V256.43a7.77,7.77,0,0,0,7.77,7.77H162.22a7.77,7.77,0,0,0,7.77-7.77V48.27a7.77,7.77,0,0,0-7.77-7.77Z"/><rect class="cls-3" x="33.12" y="181.83" width="49.41" height="57.87" rx="6.52"/><path class="cls-2" d="M76,182.83a5.52,5.52,0,0,1,5.52,5.52v44.84A5.52,5.52,0,0,1,76,238.7H39.63a5.51,5.51,0,0,1-5.51-5.51V188.35a5.52,5.52,0,0,1,5.51-5.52H76m0-2H39.63a7.52,7.52,0,0,0-7.51,7.52v44.84a7.51,7.51,0,0,0,7.51,7.51H76a7.52,7.52,0,0,0,7.52-7.51V188.35A7.52,7.52,0,0,0,76,180.83Z"/><rect class="cls-2" x="62.07" y="214.94" width="17.31" height="15.41" rx="1.96"/><path class="cls-2" d="M39.44,196.11a1.9,1.9,0,1,0,1.9,1.9,1.89,1.89,0,0,0-1.9-1.9Z"/><path class="cls-2" d="M63.76,196.11a1.9,1.9,0,1,0,1.89,1.9,1.9,1.9,0,0,0-1.89-1.9Z"/><path class="cls-2" d="M63.76,206.22a1.9,1.9,0,1,0,1.89,1.89,1.9,1.9,0,0,0-1.89-1.89Z"/><path class="cls-2" d="M39.44,202.24a1.9,1.9,0,1,0,1.9,1.9,1.89,1.89,0,0,0-1.9-1.9Z"/><path class="cls-1" d="M81.56,272.1h22a2.56,2.56,0,0,1,2.56,2.56v12.79A8.53,8.53,0,0,1,97.57,296h-10A8.53,8.53,0,0,1,79,287.45V274.66A2.56,2.56,0,0,1,81.56,272.1Z"/><path class="cls-2" d="M97.57,297h-10A9.54,9.54,0,0,1,78,287.45V274.66a3.56,3.56,0,0,1,3.56-3.56h22a3.56,3.56,0,0,1,3.56,3.56v12.79A9.54,9.54,0,0,1,97.57,297Zm-16-23.87A1.56,1.56,0,0,0,80,274.66v12.79A7.53,7.53,0,0,0,87.53,295h10a7.53,7.53,0,0,0,7.53-7.52V274.66a1.56,1.56,0,0,0-1.56-1.56Z"/><path class="cls-2" d="M105.3,272.88H79.8v-2.8a1.85,1.85,0,0,1,1.86-1.85h21.79a1.85,1.85,0,0,1,1.85,1.85Zm-23.5-2h21.5v-.65H81.8Z"/><polygon class="cls-2" points="97.59 262.18 87.51 262.18 80.38 264.21 80.38 267.08 87.51 269.12 97.59 269.12 104.72 267.08 104.72 264.21 97.59 262.18"/><rect class="cls-2" x="82.34" y="275.26" width="2" height="11.94"/><path class="cls-1" d="M119.09,272.1h22a2.56,2.56,0,0,1,2.56,2.56v12.79A8.53,8.53,0,0,1,135.1,296h-10a8.53,8.53,0,0,1-8.53-8.53V274.66A2.56,2.56,0,0,1,119.09,272.1Z"/><path class="cls-2" d="M135.1,297h-10a9.54,9.54,0,0,1-9.53-9.52V274.66a3.56,3.56,0,0,1,3.56-3.56h22a3.56,3.56,0,0,1,3.56,3.56v12.79A9.54,9.54,0,0,1,135.1,297Zm-16-23.87a1.56,1.56,0,0,0-1.56,1.56v12.79a7.53,7.53,0,0,0,7.53,7.52h10a7.53,7.53,0,0,0,7.53-7.52V274.66a1.56,1.56,0,0,0-1.56-1.56Z"/><path class="cls-2" d="M142.83,272.88h-25.5v-2.8a1.85,1.85,0,0,1,1.85-1.85H141a1.85,1.85,0,0,1,1.86,1.85Zm-23.5-2h21.5v-.65h-21.5Z"/><polygon class="cls-2" points="135.12 262.18 125.04 262.18 117.91 264.21 117.91 267.08 125.04 269.12 135.12 269.12 142.25 267.08 142.25 264.21 135.12 262.18"/><rect class="cls-2" x="119.87" y="275.26" width="2" height="11.94"/><path class="cls-3" d="M18.66,259.47a4.18,4.18,0,1,1,4.18-4.18A4.18,4.18,0,0,1,18.66,259.47Z"/><path class="cls-2" d="M18.66,252.11a3.18,3.18,0,1,1-3.18,3.18,3.19,3.19,0,0,1,3.18-3.18m0-2a5.18,5.18,0,1,0,5.18,5.18,5.18,5.18,0,0,0-5.18-5.18Z"/><path class="cls-3" d="M160.53,259.47a4.18,4.18,0,1,1,4.17-4.18A4.18,4.18,0,0,1,160.53,259.47Z"/><path class="cls-2" d="M160.53,252.11a3.18,3.18,0,1,1-3.18,3.18,3.18,3.18,0,0,1,3.18-3.18m0-2a5.18,5.18,0,1,0,5.17,5.18,5.17,5.17,0,0,0-5.17-5.18Z"/><path class="cls-3" d="M18.66,53.82a4.18,4.18,0,1,1,4.18-4.18A4.18,4.18,0,0,1,18.66,53.82Z"/><path class="cls-2" d="M18.66,46.46a3.18,3.18,0,1,1-3.18,3.18,3.19,3.19,0,0,1,3.18-3.18m0-2a5.18,5.18,0,1,0,5.18,5.18,5.18,5.18,0,0,0-5.18-5.18Z"/><path class="cls-3" d="M160.53,53.82a4.18,4.18,0,1,1,4.17-4.18A4.18,4.18,0,0,1,160.53,53.82Z"/><path class="cls-2" d="M160.53,46.46a3.18,3.18,0,1,1-3.18,3.18,3.18,3.18,0,0,1,3.18-3.18m0-2a5.18,5.18,0,1,0,5.17,5.18,5.17,5.17,0,0,0-5.17-5.18Z"/><path class="cls-4" d="M40.37,169.62a6.85,6.85,0,0,1-2.61-.5,6.76,6.76,0,0,1-2.14-1.37,6.22,6.22,0,0,1-1.43-2,6.43,6.43,0,0,1,0-5,6.22,6.22,0,0,1,1.43-2,6.71,6.71,0,0,1,4.75-1.87,7.4,7.4,0,0,1,2.17.32,5.88,5.88,0,0,1,1.77.89l-.86,1.66a4.26,4.26,0,0,0-1.34-.7,5.38,5.38,0,0,0-1.62-.24,4.94,4.94,0,0,0-1.87.34,4.55,4.55,0,0,0-1.49,1,4.46,4.46,0,0,0,0,6.38,4.55,4.55,0,0,0,1.49,1,4.94,4.94,0,0,0,1.87.34,5.09,5.09,0,0,0,1.62-.25,4,4,0,0,0,1.34-.69l.86,1.66a6,6,0,0,1-1.75.87A6.79,6.79,0,0,1,40.37,169.62Z"/><path class="cls-4" d="M50,169.62a4.78,4.78,0,0,1-2.25-.52,4,4,0,0,1-1.58-1.44,4.12,4.12,0,0,1,0-4.25A4,4,0,0,1,47.71,162a5.13,5.13,0,0,1,4.5,0,4,4,0,0,1,1.58,1.43,4.12,4.12,0,0,1,0,4.25,4,4,0,0,1-1.58,1.44A4.78,4.78,0,0,1,50,169.62ZM50,168a2.56,2.56,0,0,0,1.26-.31,2.3,2.3,0,0,0,.88-.87,2.53,2.53,0,0,0,.33-1.29,2.5,2.5,0,0,0-.33-1.29,2.3,2.3,0,0,0-.88-.87,2.56,2.56,0,0,0-1.26-.32,2.54,2.54,0,0,0-1.26.32,2.37,2.37,0,0,0-.88.87,2.5,2.5,0,0,0-.33,1.29,2.46,2.46,0,0,0,.33,1.28,2.32,2.32,0,0,0,.88.88A2.53,2.53,0,0,0,50,168Z"/><path class="cls-4" d="M56.6,169.38V161.7h1.86v.92a3,3,0,0,1,1.07-.83,3.32,3.32,0,0,1,1.51-.33,3.09,3.09,0,0,1,1.55.37,2.5,2.5,0,0,1,1,1.08,3.38,3.38,0,0,1,.37,1.63v4.84H62.12v-4.45a2.11,2.11,0,0,0-.47-1.48,1.7,1.7,0,0,0-1.32-.52,2,2,0,0,0-1,.24,1.55,1.55,0,0,0-.64.63,1.71,1.71,0,0,0-.23.87v4.71Z"/><path class="cls-4" d="M69,169.62a2,2,0,0,1-1.61-.68,2.79,2.79,0,0,1-.58-1.89v-3.93H65.9V161.7h.94v-2.87h1.87v2.87h1.76v1.42H68.71v3.8a1.31,1.31,0,0,0,.2.77.65.65,0,0,0,.56.27,1.15,1.15,0,0,0,.73-.25l.47,1.5a4,4,0,0,1-.78.3A3.62,3.62,0,0,1,69,169.62Z"/><path class="cls-4" d="M72.8,169.38V161.7h1.87v1.12a2.87,2.87,0,0,1,1-1,2.72,2.72,0,0,1,1.35-.35,3,3,0,0,1,.77.1,2.76,2.76,0,0,1,.69.27l-.78,1.58a1.63,1.63,0,0,0-.57-.24,2.26,2.26,0,0,0-.6-.08,1.78,1.78,0,0,0-.9.24,2,2,0,0,0-.7.63,1.45,1.45,0,0,0-.27.84v4.58Z"/><path class="cls-4" d="M83.72,169.62a4.78,4.78,0,0,1-2.25-.52,4,4,0,0,1-1.59-1.44,4.18,4.18,0,0,1,0-4.25A4,4,0,0,1,81.47,162a4.78,4.78,0,0,1,2.25-.52A4.71,4.71,0,0,1,86,162a4,4,0,0,1,1.59,1.43,4.18,4.18,0,0,1,0,4.25A4,4,0,0,1,86,169.1,4.71,4.71,0,0,1,83.72,169.62Zm0-1.61A2.56,2.56,0,0,0,85,167.7a2.3,2.3,0,0,0,.88-.87,2.52,2.52,0,0,0,.32-1.29,2.5,2.5,0,0,0-.32-1.29,2.3,2.3,0,0,0-.88-.87,2.56,2.56,0,0,0-1.26-.32,2.51,2.51,0,0,0-1.26.32,2.3,2.3,0,0,0-.88.87,2.5,2.5,0,0,0-.33,1.29,2.46,2.46,0,0,0,.33,1.28,2.26,2.26,0,0,0,.88.88A2.5,2.5,0,0,0,83.72,168Z"/><path class="cls-4" d="M90.35,169.38v-12.9h1.87v12.9Z"/><path class="cls-4" d="M101.93,169.38,96.74,157H99l3.75,9.42,3.73-9.42h2.22l-5.19,12.38Z"/><line class="cls-5" x1="130.08" y1="313.57" x2="130.08" y2="296.97"/><line class="cls-5" x1="186.54" y1="121.42" x2="186.54" y2="312.51"/><line class="cls-5" x1="128.58" y1="312.51" x2="188.03" y2="312.51"/></g></svg>