<svg xmlns="http://www.w3.org/2000/svg" viewBox="0 0 188.02 362.7"><defs><style>.cls-1{fill:none;stroke:#1d1d1b;stroke-miterlimit:10;stroke-width:3px;}.cls-2{fill:#ec6822;}.cls-3{fill:#3c3c3b;}.cls-4{fill:#f6f6f6;}.cls-5{fill:#1a1a1a;}.cls-6{fill:#fff;}.cls-7{fill:#1d1d1b;}</style></defs><g id="Warstwa_3" data-name="Warstwa 3"><line class="cls-1" x1="87.29" y1="189.26" x2="87.29" y2="122.94"/><line class="cls-1" x1="85.79" y1="122.94" x2="188.02" y2="122.94"/><rect class="cls-2" x="45.09" y="191.76" width="84.5" height="114.72" rx="11.87"/><path class="cls-3" d="M117.71,307H57A12.45,12.45,0,0,1,44.53,294.6v-91A12.44,12.44,0,0,1,57,191.21h60.75a12.43,12.43,0,0,1,12.43,12.42v91A12.44,12.44,0,0,1,117.71,307ZM57,192.31a11.34,11.34,0,0,0-11.32,11.32v91A11.34,11.34,0,0,0,57,305.92h60.75A11.34,11.34,0,0,0,129,294.6v-91a11.34,11.34,0,0,0-11.32-11.32Z"/><path class="cls-4" d="M130.44,200.8a11.44,11.44,0,0,0-11.32-11.55H55.56A11.44,11.44,0,0,0,44.23,200.8v54H54.86a35.55,35.55,0,0,0,65,0h10.63Z"/><path class="cls-5" d="M87.34,276.45a36.5,36.5,0,0,1-32.83-21.09H43.68V200.8a12,12,0,0,1,11.88-12.1h63.56A12,12,0,0,1,131,200.8v54.56H120.16A36.5,36.5,0,0,1,87.34,276.45Zm-42.56-22.2H55.22l.14.33a35,35,0,0,0,64,0l.15-.33h10.43V200.8a10.9,10.9,0,0,0-10.77-11H55.56a10.91,10.91,0,0,0-10.78,11Z"/><path class="cls-3" d="M87.34,268.79a30.39,30.39,0,1,1,30.39-30.39A30.43,30.43,0,0,1,87.34,268.79Zm0-59.21a28.82,28.82,0,1,0,28.81,28.82A28.85,28.85,0,0,0,87.34,209.58Z"/><circle class="cls-6" cx="87.34" cy="195.31" r="3.05"/><path class="cls-3" d="M87.34,198.85a3.54,3.54,0,1,1,3.53-3.54A3.55,3.55,0,0,1,87.34,198.85Zm0-6.1a2.57,2.57,0,1,0,2.56,2.56A2.57,2.57,0,0,0,87.34,192.75Z"/><path class="cls-6" d="M122.76,291.22a.54.54,0,0,1-.55-.55v-29.1a.54.54,0,0,1,.55-.55.55.55,0,0,1,.55.55v29.1A.55.55,0,0,1,122.76,291.22Z"/><path class="cls-7" d="M72.63,205.71a2.32,2.32,0,0,1-.72-.1,2.62,2.62,0,0,1-.56-.24,2.77,2.77,0,0,1-.4-.3l-.25-.24.45-.7.23.23c.1.08.21.17.33.25a2.1,2.1,0,0,0,.42.22,1.72,1.72,0,0,0,.52.08,1.21,1.21,0,0,0,.48-.09.78.78,0,0,0,.33-.26.72.72,0,0,0,.13-.44.71.71,0,0,0-.1-.39.8.8,0,0,0-.27-.28,2.22,2.22,0,0,0-.41-.23l-.54-.23a3.17,3.17,0,0,1-.41-.21,1.72,1.72,0,0,1-.37-.28,1.15,1.15,0,0,1-.27-.38,1.12,1.12,0,0,1-.1-.5,1.43,1.43,0,0,1,.12-.58,1.53,1.53,0,0,1,.34-.5,1.61,1.61,0,0,1,.53-.34,1.83,1.83,0,0,1,.68-.13,2,2,0,0,1,.59.09,2.83,2.83,0,0,1,.53.23,2.2,2.2,0,0,1,.39.3l-.37.66a2.43,2.43,0,0,0-.3-.24,1.38,1.38,0,0,0-.39-.18,1.27,1.27,0,0,0-.44-.07.88.88,0,0,0-.45.1.66.66,0,0,0-.29.28.66.66,0,0,0-.1.37.54.54,0,0,0,.07.29.72.72,0,0,0,.19.2,2,2,0,0,0,.29.16l.35.14.66.29a2.54,2.54,0,0,1,.53.34,1.17,1.17,0,0,1,.34.45,1.32,1.32,0,0,1,.13.62,1.53,1.53,0,0,1-.24.87,1.58,1.58,0,0,1-.67.55A2.35,2.35,0,0,1,72.63,205.71Z"/><path class="cls-7" d="M75.15,205.6l3.13-4.66H75.53v-.77H79.8l-3.13,4.67h3v.76Z"/><path class="cls-7" d="M83.22,205.71a2.7,2.7,0,0,1-1.94-.82,2.84,2.84,0,0,1-.58-.9,2.86,2.86,0,0,1,0-2.2,2.84,2.84,0,0,1,.58-.9,2.94,2.94,0,0,1,.87-.6,2.77,2.77,0,0,1,1.07-.22,2.73,2.73,0,0,1,1.07.22,2.94,2.94,0,0,1,.87.6,2.88,2.88,0,0,1,0,4,2.61,2.61,0,0,1-.87.6A2.56,2.56,0,0,1,83.22,205.71Zm0-.83a1.72,1.72,0,0,0,.72-.15,1.83,1.83,0,0,0,.58-.42,2,2,0,0,0,.38-.63,2.22,2.22,0,0,0,.14-.79,2.26,2.26,0,0,0-.14-.79,2,2,0,0,0-.38-.63,1.66,1.66,0,0,0-.58-.41,1.78,1.78,0,0,0-1.43,0,1.66,1.66,0,0,0-.58.41,2,2,0,0,0-.38.63,2.26,2.26,0,0,0-.14.79,2.22,2.22,0,0,0,.14.79,2,2,0,0,0,.38.63,1.83,1.83,0,0,0,.58.42A1.71,1.71,0,0,0,83.22,204.88Z"/><path class="cls-7" d="M86.55,205.6l2.17-5.43h.8l2.16,5.43h-.93l-.53-1.41H88l-.53,1.41Zm1.76-2.17h1.62l-.82-2.1Z"/><path class="cls-7" d="M92.49,205.6v-3.37h.82v.41a1.75,1.75,0,0,1,.49-.39,1.32,1.32,0,0,1,.57-.12,1.41,1.41,0,0,1,.71.18,1.07,1.07,0,0,1,.44.48,1.82,1.82,0,0,1,.51-.49,1.37,1.37,0,0,1,.68-.17,1.34,1.34,0,0,1,.64.15,1.07,1.07,0,0,1,.44.43,1.28,1.28,0,0,1,.17.67v2.22h-.82v-2a.89.89,0,0,0-.2-.6.68.68,0,0,0-.52-.22.89.89,0,0,0-.41.1.7.7,0,0,0-.28.26.67.67,0,0,0-.1.33v2.13h-.82v-2a.8.8,0,0,0-.19-.57.65.65,0,0,0-.52-.22.74.74,0,0,0-.4.1.79.79,0,0,0-.29.25.59.59,0,0,0-.1.34v2.13Z"/><path class="cls-7" d="M99.58,201.54a.43.43,0,0,1-.25-.07.39.39,0,0,1-.18-.18.43.43,0,0,1-.07-.25.45.45,0,0,1,.07-.25.42.42,0,0,1,.18-.17.43.43,0,0,1,.25-.07.45.45,0,0,1,.25.07.58.58,0,0,1,.18.17.54.54,0,0,1,.06.25.47.47,0,0,1-.24.43A.45.45,0,0,1,99.58,201.54Zm-.41,4.06v-3.37H100v3.37Z"/><path class="cls-7" d="M101.26,205.6v-3.37h.82v.41a1.36,1.36,0,0,1,.47-.37,1.53,1.53,0,0,1,.66-.14,1.34,1.34,0,0,1,.68.16,1.16,1.16,0,0,1,.46.47,1.66,1.66,0,0,1,.16.72v2.12h-.82v-1.95a.92.92,0,0,0-.21-.65.75.75,0,0,0-.58-.23.87.87,0,0,0-.44.11.73.73,0,0,0-.28.27.76.76,0,0,0-.1.39v2.06Z"/><path class="cls-7" d="M106.12,201.54a.45.45,0,0,1-.25-.07.47.47,0,0,1-.24-.43.54.54,0,0,1,.06-.25.58.58,0,0,1,.18-.17.45.45,0,0,1,.25-.07.41.41,0,0,1,.25.07.58.58,0,0,1,.18.17.55.55,0,0,1,.07.25.51.51,0,0,1-.25.43A.41.41,0,0,1,106.12,201.54Zm-.41,4.06v-3.37h.82v3.37Z"/></g></svg>