<svg xmlns="http://www.w3.org/2000/svg" viewBox="0 0 188.02 362.7"><defs><style>.cls-1{fill:#f6f6f6;}.cls-2{fill:#3c3c3b;}.cls-3{fill:#ededed;}.cls-4{fill:#1a1a1a;}.cls-5{fill:#fff;}.cls-6{fill:none;stroke:#1d1d1b;stroke-miterlimit:10;stroke-width:3px;}</style></defs><g id="Warstwa_3" data-name="Warstwa 3"><path class="cls-1" d="M58.42,204.44h0v-6.76a.4.4,0,0,1,.4-.4H89.19a.33.33,0,0,1,.17,0h25.45a.74.74,0,0,1,.74.74v7.8H130.8a.9.9,0,0,1,.9.9v45a.91.91,0,0,1-.9.9H109a.91.91,0,0,1-.9-.9V249.8h-4.25a.86.86,0,0,1-.83-.67l-41.3-41.3a1.05,1.05,0,0,1-.07-.11l-2.89-2.89a.56.56,0,0,1-.05-.08l-.3-.3h0Z"/><path class="cls-2" d="M107.45,251.72v-1.24h-3.58a1.52,1.52,0,0,1-1.42-1L61.27,208.31a1.33,1.33,0,0,1-.14-.17l-2.82-2.83-.12-.14,0,0h-.4v-.4l-.35-.36.35-.26v-6.42a1.08,1.08,0,0,1,1.08-1.08H89.19a1,1,0,0,1,.29,0h25.33a1.43,1.43,0,0,1,1.42,1.42v7.12H130.8a1.57,1.57,0,0,1,1.57,1.58v45a1.57,1.57,0,0,1-1.57,1.57H109A1.57,1.57,0,0,1,107.45,251.72Zm7.43-45.18v-8.48a.08.08,0,0,0-.07-.07H89.21l-.09,0h-30v6.21l44.56,44.62,0,.19a.17.17,0,0,0,.17.15h4.93v2.6a.22.22,0,0,0,.22.22H130.8a.22.22,0,0,0,.22-.22v-45a.22.22,0,0,0-.22-.22Z"/><path class="cls-3" d="M46.33,206.87H60.69l40.74,40.62a.64.64,0,0,1-.63.56H98.12v1.81A.14.14,0,0,1,98,250H91.77a.14.14,0,0,1-.14-.14v-1.81H81.13v1.81A.15.15,0,0,1,81,250h-6.2a.14.14,0,0,1-.14-.14v-1.81H72a.65.65,0,0,1-.65-.65V242H66.2v7.51a.42.42,0,0,1-.42.42H46.33a.72.72,0,0,1-.72-.72V207.59A.72.72,0,0,1,46.33,206.87Z"/><path class="cls-4" d="M74,249.86v-1.13H72a1.34,1.34,0,0,1-1.33-1.33v-4.76H66.87v6.83a1.09,1.09,0,0,1-1.09,1.09H46.33a1.4,1.4,0,0,1-1.4-1.39V207.59a1.4,1.4,0,0,1,1.4-1.4H61l41.18,41.05-.05.34a1.33,1.33,0,0,1-1.3,1.15h-2v1.13a.82.82,0,0,1-.81.82H91.77a.82.82,0,0,1-.82-.82v-1.13H81.8v1.13a.82.82,0,0,1-.82.82h-6.2A.82.82,0,0,1,74,249.86Zm6.49-2.49H92.31v2h5.13v-2l2.94,0-40-39.85H46.33l0,.05,0,41.62H65.52v-7.92H72l0,6.08h3.35v2h5.14Z"/><rect class="cls-1" x="52.78" y="186.69" width="67.51" height="10.63" rx="1.18" transform="translate(173.08 384) rotate(-180)"/><path class="cls-4" d="M52.11,196.13v-8.26A1.86,1.86,0,0,1,54,186h65.14a1.86,1.86,0,0,1,1.86,1.86v8.26a1.86,1.86,0,0,1-1.86,1.86H54A1.86,1.86,0,0,1,52.11,196.13ZM54,187.36a.51.51,0,0,0-.51.51v8.26a.51.51,0,0,0,.51.51h65.14a.51.51,0,0,0,.51-.51v-8.26a.51.51,0,0,0-.51-.51Z"/><rect class="cls-1" x="65.27" y="146.08" width="43.94" height="13.45" rx="1.08" transform="translate(240.04 65.56) rotate(90)"/><path class="cls-4" d="M79.9,173.7V131.91a1.69,1.69,0,0,1,1.69-1.69h11.3a1.69,1.69,0,0,1,1.69,1.69V173.7a1.69,1.69,0,0,1-1.69,1.69H81.59A1.69,1.69,0,0,1,79.9,173.7Zm1.69-42.26a.47.47,0,0,0-.46.47V173.7a.47.47,0,0,0,.46.46h11.3a.47.47,0,0,0,.47-.46V131.91a.47.47,0,0,0-.47-.47Z"/><rect class="cls-4" x="76.35" y="111.36" width="21.78" height="16.14" rx="0.83" transform="translate(206.67 32.19) rotate(90)"/><rect class="cls-5" x="103.31" y="140.7" width="33.31" height="36.13" rx="1.53" transform="translate(278.73 38.79) rotate(90)"/><path class="cls-2" d="M101.23,173.88V143.64a2.21,2.21,0,0,1,2.21-2.21H136.5a2.22,2.22,0,0,1,2.21,2.21v30.24a2.22,2.22,0,0,1-2.21,2.21H103.44A2.21,2.21,0,0,1,101.23,173.88Zm2.21-31.1a.86.86,0,0,0-.86.86v30.24a.86.86,0,0,0,.86.86H136.5a.86.86,0,0,0,.85-.86V143.64a.86.86,0,0,0-.85-.86Z"/><rect class="cls-5" x="115.87" y="121.61" width="8.2" height="33.05" rx="0.73" transform="translate(258.1 18.17) rotate(90)"/><path class="cls-4" d="M102.76,141.5v-6.74a1.41,1.41,0,0,1,1.41-1.4h31.59a1.41,1.41,0,0,1,1.41,1.4v6.74a1.41,1.41,0,0,1-1.41,1.41H104.17A1.41,1.41,0,0,1,102.76,141.5Zm1.41-6.79a0,0,0,0,0,0,0v6.74a.06.06,0,0,0,0,.06h31.59a.06.06,0,0,0,.06-.06v-6.74a.06.06,0,0,0-.06,0Z"/><rect class="cls-4" x="108.89" y="111.04" width="22.29" height="23.96" rx="1.02" transform="translate(243.05 2.99) rotate(90)"/><rect class="cls-4" x="125.7" y="114.62" width="15.63" height="16.8" rx="0.72" transform="translate(256.53 -10.49) rotate(90)"/><rect class="cls-4" x="137.68" y="120.32" width="13.32" height="5.39" rx="0.37" transform="translate(267.36 -21.32) rotate(90)"/><rect class="cls-4" x="75.97" y="174.32" width="22.55" height="3.07" rx="0.37" transform="translate(174.49 351.72) rotate(-180)"/><rect class="cls-4" x="84.96" y="156.75" width="22.55" height="4.14" rx="0.43" transform="translate(-62.59 255.05) rotate(-90)"/><rect class="cls-4" x="91.98" y="156.75" width="16.53" height="4.14" rx="0.37" transform="translate(-58.58 259.07) rotate(-90)"/><path class="cls-1" d="M60,178h54.45a1,1,0,0,1,1,1v2.47a5.26,5.26,0,0,1-5.26,5.26H64.3A5.26,5.26,0,0,1,59,181.42V179A1,1,0,0,1,60,178Z" transform="translate(174.49 364.66) rotate(-180)"/><path class="cls-4" d="M58.36,185.71v-2.47a6,6,0,0,1,5.94-5.94h45.88a5.94,5.94,0,0,1,5.94,5.94v2.47a1.65,1.65,0,0,1-1.65,1.65H60A1.65,1.65,0,0,1,58.36,185.71Zm5.94-7.06a4.6,4.6,0,0,0-4.59,4.59v2.47a.31.31,0,0,0,.31.3h54.45a.3.3,0,0,0,.3-.3v-2.47a4.6,4.6,0,0,0-4.59-4.59Z"/><rect class="cls-5" x="81.4" y="110.85" width="0.68" height="16.65"/><rect class="cls-2" x="82.04" y="140.95" width="0.68" height="25.11"/><path class="cls-2" d="M104.35,171.88l-.09-5.37,6.35-.11.11,6.88-4.84.08h0A1.5,1.5,0,0,1,104.35,171.88Zm5.18-4.36-4.16.07.07,4.27a.42.42,0,0,0,.41.41h0l3.75-.06Z"/><rect class="cls-5" x="106.89" y="163.48" width="4.72" height="9.88" transform="translate(304.26 216.11) rotate(136.72)"/><line class="cls-6" x1="147.12" y1="122.94" x2="188.02" y2="122.94"/></g></svg>